<mxfile host="65bd71144e">
    <diagram id="DjmvyaZCsJMdG9fhWqIp" name="Page-1">
        <mxGraphModel dx="820" dy="448" grid="1" gridSize="10" guides="1" tooltips="1" connect="1" arrows="1" fold="1" page="1" pageScale="1" pageWidth="827" pageHeight="1169" background="none" math="0" shadow="0">
            <root>
                <mxCell id="0"/>
                <mxCell id="1" parent="0"/>
                <mxCell id="2" value="" style="rounded=1;whiteSpace=wrap;html=1;fillColor=#647687;fontColor=#ffffff;strokeColor=#314354;" parent="1" vertex="1">
                    <mxGeometry x="190" y="90" width="120" height="60" as="geometry"/>
                </mxCell>
                <mxCell id="FgiAdFfCtwasYo5r2a0U-2" value="Load graphical interface&amp;nbsp;&lt;br&gt;&lt;br&gt;Display menu screens&amp;nbsp;" style="whiteSpace=wrap;html=1;aspect=fixed;fillColor=#0050ef;fontColor=#ffffff;strokeColor=#001DBC;" parent="1" vertex="1">
                    <mxGeometry x="50" y="50" width="90" height="90" as="geometry"/>
                </mxCell>
            </root>
        </mxGraphModel>
    </diagram>
</mxfile>